<?xml version="1.0" encoding="UTF-8"?>
<svg xmlns="http://www.w3.org/2000/svg" viewBox="0 0 512 512" width="512" height="512">
  <defs>
    <linearGradient id="g2" x1="0%" y1="0%" x2="100%" y2="100%">
      <stop offset="0%" stop-color="#667EEA"/>
      <stop offset="100%" stop-color="#764BA2"/>
    </linearGradient>
  </defs>
  <rect width="512" height="512" rx="96" fill="url(#g2)"/>
  <g fill="#fff" transform="scale(2)">
    <path d="M72 56h80l32 32v112a16 16 0 0 1-16 16H72a16 16 0 0 1-16-16V72a16 16 0 0 1 16-16zm88 8H72a8 8 0 0 0-8 8v128a8 8 0 0 0 8 8h96a8 8 0 0 0 8-8V96h-16a8 8 0 0 1-8-8V64z"/>
    <rect x="88" y="120" width="80" height="16" rx="8"/>
    <rect x="88" y="152" width="64" height="16" rx="8"/>
    <rect x="88" y="184" width="48" height="16" rx="8"/>
  </g>
  <circle cx="392" cy="392" r="56" fill="#fff"/>
  <path d="M392 344a8 8 0 0 1 8 8v32h32a8 8 0 0 1 0 16h-32v32a8 8 0 0 1-16 0v-32h-32a8 8 0 0 1 0-16h32v-32a8 8 0 0 1 8-8z" fill="#764BA2"/>
</svg>